<?xml version="1.0" encoding="utf-8"?>
<!-- Generator: Adobe Illustrator 27.4.1, SVG Export Plug-In . SVG Version: 6.00 Build 0)  -->
<svg version="1.1" id="Layer_1" xmlns="http://www.w3.org/2000/svg" xmlns:xlink="http://www.w3.org/1999/xlink" x="0px" y="0px"
	 viewBox="0 0 200 40" style="enable-background:new 0 0 200 40;" xml:space="preserve">
<style type="text/css">
	.st0{fill:#FFFFFF;}
</style>
<g>
	<path class="st0" d="M29.89,19.74c0,7.29-4.88,13.71-14.15,13.71c-8.72,0-13.85-6.05-13.85-13.69c0-7.21,5.37-13.55,14.08-13.55
		C24.85,6.21,29.89,12.57,29.89,19.74z M7.68,19.67c0,5.16,2.8,9.42,8.34,9.42c5.63,0,8.07-4.57,8.07-9.28
		c0-4.88-2.63-9.25-8.32-9.25C10.36,10.56,7.68,14.91,7.68,19.67z"/>
	<path class="st0" d="M38.71,25.14c0.81,2.51,2.76,4.21,7.36,4.21c4.41,0,5.84-1.48,5.84-3.41c0-2.05-1.28-3.25-7.18-4.25
		c-8.68-1.48-10.4-4.27-10.4-7.79c0-5.02,4.81-7.67,10.83-7.67c8.82,0,11.11,4.56,11.41,7.47h-5.51c-0.42-1.45-1.37-3.38-6.07-3.38
		c-3.26,0-5.08,1.06-5.08,3.05c0,1.71,1.07,2.66,6.31,3.58c9.77,1.72,11.31,4.7,11.31,8.43c0,4.41-3.48,8.04-11.95,8.04
		c-7.89,0-11.58-3.54-12.39-8.29H38.71z"/>
	<path class="st0" d="M67.98,6.76v14.8c0,5.97,3.27,7.53,6.73,7.53c3.86,0,6.34-1.73,6.34-7.53V6.76h5.49v14.93
		c0,8.11-4.45,11.76-11.99,11.76c-7.35,0-12.05-3.45-12.05-11.57V6.76H67.98z"/>
	<path class="st0" d="M93.34,6.76h5.48v21.68h15l-0.75,4.46H93.34V6.76z"/>
	<path class="st0" d="M117.5,6.76h5.48v21.68h15l-0.74,4.46H117.5V6.76z"/>
	<path class="st0" d="M167.9,19.74c0,7.29-4.88,13.71-14.15,13.71c-8.72,0-13.85-6.05-13.85-13.69c0-7.21,5.37-13.55,14.08-13.55
		C162.85,6.21,167.9,12.57,167.9,19.74z M145.69,19.67c0,5.16,2.8,9.42,8.34,9.42c5.63,0,8.07-4.57,8.07-9.28
		c0-4.88-2.63-9.25-8.32-9.25C148.37,10.56,145.69,14.91,145.69,19.67z"/>
	<path class="st0" d="M198.35,24.81c-1.3,4.56-4.83,8.64-12.79,8.64c-9.13,0-13.7-6.33-13.7-13.59c0-7.25,5.05-13.66,13.99-13.66
		c7.86,0,11.71,4.33,12.55,8.67h-5.57c-0.73-1.9-2.36-4.34-7.04-4.34c-5.25,0-8.14,3.95-8.14,9.12c0,5.17,2.73,9.49,8.17,9.49
		c4.1,0,5.85-1.66,6.99-4.34H198.35z"/>
</g>
</svg>
